<svg xmlns="http://www.w3.org/2000/svg" viewBox="0 0 100 100" width="100" height="100">
    <defs>
        <style>
            .bg {
                fill: #4d4d4d;
            }

            .text {
                fill: #f0f0f0;
                font-family: sans-serif;
                font-size: 50px;
                font-weight: bold;
            }
        </style>
    </defs>
    <path class="bg"
        d="M50,10 C77.6,10 100,20.1 100,32.5 L100,67.5 C100,79.9 77.6,90 50,90 C22.4,90 0,79.9 0,67.5 L0,32.5 C0,20.1 22.4,10 50,10 Z M0,32.5 C0,44.9 22.4,55 50,55 C77.6,55 100,44.9 100,32.5 C100,20.1 77.6,10 50,10 C22.4,10 0,20.1 0,32.5 Z" />
    <text x="30" y="70" class="text">R</text>
</svg>